# xmcd
# Copyright (C) 1995-1998 Ti Kan
#
# Track frame offsets:
#       150
#       19575
#       37725
#       56347
#
# Disc length: 1001 seconds
#
# Revision: 0
# Processed by: cddbd v1.4PL0 Copyright (c) Steve Scherf et al.
# Submitted via: CD-Transfer v1.0
#
DISCID=2003e704
DTITLE=3m - Sional Hip-Hop
DYEAR=2001
DGENRE=
TTITLE0=Die Philosophie Des Hip-Hop
TTITLE1=Rot Wyss Blau
TTITLE2=Sandmann
TTITLE3=Homosapiens
EXTD=
EXTT0=
EXTT1=
EXTT2=
EXTT3=
PLAYORDER=
